<svg preserveAspectRatio="none" width="100%" height="100%" overflow="visible" style="display: block;" viewBox="0 0 335 157.562" fill="none" xmlns="http://www.w3.org/2000/svg">
<g id="Group 1437253791" filter="url(#filter0_i_0_4)">
<path id="Vector" d="M34.7419 64.3704H24.3567V0H34.7419V64.3704Z" fill="var(--fill-0, #F0F0F0)"/>
<g id="Group">
<path id="Vector_2" d="M264.842 64.3705H253.808L254.213 49.9134H226.871L216.161 64.3705H204.884L253.158 4.15239e-05H265.004L264.842 64.3705ZM254.457 41.3522L254.943 11.3073L232.956 41.3522H254.457Z" fill="var(--fill-0, #F0F0F0)"/>
<path id="Vector_3" d="M334.693 64.3707H324.957V15.5074L309.298 64.3707H298.913L283.335 15.5881V64.3707H273.599V0.000302201H289.015L304.43 51.2867L319.846 0.000302201H334.855V64.3707H334.693Z" fill="var(--fill-0, #F0F0F0)"/>
</g>
<g id="Group_2">
<path id="Vector_4" d="M59.9579 155.299H48.6803L43.7312 140.842H16.389L11.0342 155.299H0L24.259 90.9286H36.1046L59.9579 155.299ZM40.7292 132.281L30.0195 102.236L19.2287 132.281H40.7292Z" fill="var(--fill-0, #F0F0F0)"/>
<path id="Vector_5" d="M114.729 155.3H106.047L105.885 145.528C104.425 149 101.829 151.908 98.1775 154.17C94.5265 156.431 90.2264 157.562 85.1961 157.562C76.3525 157.562 69.2939 154.17 63.939 147.466C58.5842 140.762 55.9879 132.524 55.9879 122.832C55.9879 113.14 58.7464 105.064 64.1824 98.6026C69.6184 92.1413 77.1638 88.9107 86.8999 88.9107C94.5265 88.9107 100.855 90.9298 106.047 95.0489C111.24 99.0872 114.08 104.418 114.648 110.96H104.263C103.776 107.083 101.91 103.852 98.5832 101.349C95.2567 98.8449 91.3623 97.5526 86.8188 97.5526C80.7337 97.5526 75.8657 99.8948 72.1335 104.579C68.4014 109.264 66.6164 115.321 66.6164 122.832C66.6164 130.344 68.4014 136.401 71.8901 141.408C75.3789 146.416 80.3281 148.92 86.8188 148.92C92.417 148.92 96.7982 147.062 100.125 143.347C103.37 139.632 105.074 135.19 105.074 129.94H88.5226V121.621H114.81V155.462L114.729 155.3Z" fill="var(--fill-0, #F0F0F0)"/>
<path id="Vector_6" d="M167.954 155.299H120.085V90.9286H166.412V99.6513H130.226V117.177H163.816V125.9H130.226V146.415H168.035V155.218L167.954 155.299Z" fill="var(--fill-0, #F0F0F0)"/>
<path id="Vector_7" d="M222.554 155.299H212.899L180.851 107.163V155.299H171.115V90.9286H182.23L212.818 137.773V90.9286H222.554V155.299Z" fill="var(--fill-0, #F0F0F0)"/>
<path id="Vector_8" d="M273.11 133.171H283.495C282.034 140.763 278.951 146.659 274.164 151.02C269.378 155.381 263.374 157.481 255.99 157.481C247.471 157.481 240.575 154.574 235.139 148.678C229.784 142.782 227.026 134.463 227.026 123.56C227.026 112.656 229.703 104.418 234.977 98.1992C240.25 91.8994 247.39 88.8303 256.477 88.8303C264.104 88.8303 270.351 91.011 275.219 95.4531C280.087 99.8145 282.765 105.387 283.414 112.091H273.029C272.542 107.73 270.838 104.257 267.836 101.672C264.834 99.0876 261.021 97.8761 256.477 97.8761C250.392 97.8761 245.686 100.138 242.522 104.58C239.277 109.103 237.735 115.322 237.735 123.398C237.735 131.475 239.358 137.694 242.522 141.974C245.768 146.336 250.311 148.436 256.315 148.436C261.102 148.436 264.915 147.063 267.755 144.397C270.595 141.651 272.38 137.936 273.029 133.171H273.11Z" fill="var(--fill-0, #F0F0F0)"/>
<path id="Vector_9" d="M312.364 155.299H301.979V130.019L278.774 90.9286H290.944L307.333 119.358L322.911 90.9286H335L312.445 130.1V155.299H312.364Z" fill="var(--fill-0, #F0F0F0)"/>
</g>
</g>
<defs>
<filter id="filter0_i_0_4" x="0" y="0" width="335" height="159.04" filterUnits="userSpaceOnUse" color-interpolation-filters="sRGB">
<feFlood flood-opacity="0" result="BackgroundImageFix"/>
<feBlend mode="normal" in="SourceGraphic" in2="BackgroundImageFix" result="shape"/>
<feColorMatrix in="SourceAlpha" type="matrix" values="0 0 0 0 0 0 0 0 0 0 0 0 0 0 0 0 0 0 127 0" result="hardAlpha"/>
<feOffset dy="1.47859"/>
<feGaussianBlur stdDeviation="0.739294"/>
<feComposite in2="hardAlpha" operator="arithmetic" k2="-1" k3="1"/>
<feColorMatrix type="matrix" values="0 0 0 0 0 0 0 0 0 0 0 0 0 0 0 0 0 0 0.25 0"/>
<feBlend mode="normal" in2="shape" result="effect1_innerShadow_0_4"/>
</filter>
</defs>
</svg>
