<?xml version="1.0" encoding="UTF-8"?> <!-- Creator: CorelDRAW X8 --> <svg xmlns="http://www.w3.org/2000/svg" xmlns:xlink="http://www.w3.org/1999/xlink" xml:space="preserve" width="81.8444mm" height="71.6138mm" style="shape-rendering:geometricPrecision; text-rendering:geometricPrecision; image-rendering:optimizeQuality; fill-rule:evenodd; clip-rule:evenodd" viewBox="0 0 8184 7161"> <defs> <style type="text/css"> <![CDATA[ .fil0 {fill:#FEFEFE} .fil1 {fill:#F9B307} .fil2 {fill:#FEFEFE;fill-rule:nonzero} ]]> </style> </defs> <g id="Слой_x0020_1"> <metadata id="CorelCorpID_0Corel-Layer"></metadata> <g id="_2598524639920"> <path class="fil0" d="M2904 6925c-25,0 -13,4 -40,7l0 22c0,49 3,73 36,100 120,102 313,-17 469,-85 155,-66 245,-110 423,-110 146,0 302,100 393,193 36,36 69,78 121,78 32,0 59,-33 59,-60 0,-59 -178,-183 -228,-220 -281,-213 -546,-115 -835,6 -52,22 -249,119 -296,112 -36,-6 -64,-43 -102,-43z"></path> <path class="fil0" d="M4259 6205l0 79c94,-17 116,-22 201,-33 46,-6 92,-6 136,8 55,17 45,103 45,165l560 -33c89,0 190,14 256,40 0,-53 3,-106 -47,-138 -137,-89 -480,-8 -650,6 0,-74 -35,-113 -84,-141 -119,-67 -251,-35 -375,-3 -28,7 -42,18 -42,50z"></path> <path class="fil0" d="M3246 6846c100,0 48,-121 26,-165 -14,-29 -30,-56 -46,-86 101,0 275,-28 375,-32 57,-3 134,-12 186,-18 86,-11 137,1 137,-81 0,-65 -67,-52 -122,-43 -56,9 -101,16 -159,25 -129,19 -377,37 -492,61 -64,13 -70,50 -49,108 7,20 17,40 26,65 8,21 17,43 27,66 13,35 43,100 91,100z"></path> <path class="fil0" d="M4338 6859l106 93c36,-20 123,-47 178,-47 92,0 151,44 209,81 96,61 189,80 310,51 0,-33 1,-34 7,-59 -19,-9 -43,-12 -68,-17 -76,-17 -136,-36 -196,-81 -83,-61 -148,-106 -262,-106 -45,0 -119,17 -154,30l-130 55z"></path> <path class="fil0" d="M3833 6259c-25,12 -69,15 -103,23 -88,19 -177,67 -214,136 135,-20 261,-44 395,-73 67,-13 47,1 47,-257 0,-48 -20,-79 -66,-79 -51,0 -60,38 -60,92 1,53 1,105 1,158z"></path> <path class="fil0" d="M5052 6872c36,8 74,24 112,33 29,-125 106,-208 193,-297 16,-17 27,-28 40,-45 15,-21 23,-29 32,-64 -48,-14 -136,-45 -168,-1 -82,112 -206,215 -209,374z"></path> <path class="fil0" d="M3976 6437c0,75 62,61 119,60 87,-3 271,-44 368,-49 78,-4 66,-10 66,-119 -59,0 -345,40 -425,52 -44,6 -128,10 -128,56z"></path> <path class="fil0" d="M4042 6002l0 317 130 -21 -1 -336c0,-13 -6,-24 -11,-32 -9,-14 -23,-24 -38,-27l-22 0c-30,6 -58,37 -58,99z"></path> </g> <g id="_2598524639600"> <path class="fil0" d="M644 3601c28,48 130,173 227,293 -36,14 -84,34 -126,52l-316 -436c26,-51 250,-71 388,33 133,100 272,227 405,334l143 118 405 -173c254,-98 587,25 579,126 -3,35 -480,304 -480,304l2 -119c49,-50 213,-123 274,-184 31,-32 -93,-55 -205,-43 -124,19 -231,83 -342,126 -113,44 -207,110 -278,99 -39,-7 -485,-421 -570,-493 -21,-18 -70,-30 -106,-37zm301 385c68,85 122,153 129,170 28,70 -68,124 -133,59l-126 -173c46,-19 96,-40 130,-56z"></path> <path class="fil0" d="M486 4682l-195 -50 84 -154c9,-16 -211,-269 -221,-281 82,-52 275,262 377,248 31,-5 228,-80 281,-106l-64 -92c-118,25 -197,102 -287,34 -42,-31 -80,-63 -122,-95 -36,-27 -79,-64 -135,-76 -57,-12 -168,6 -181,57l185 239c55,62 36,77 -5,149 -23,41 -73,117 -26,155l249 62c36,9 46,-66 60,-90z"></path> <path class="fil0" d="M1213 4399l4 127c28,4 267,-104 317,-130 9,-5 19,-10 30,-17l0 -125 -351 145z"></path> </g> <g id="_2598524508400"> <path class="fil0" d="M6915 4554c0,71 67,145 138,145l817 0c68,0 122,-32 130,-92 7,-49 -2,-75 -35,-98 -22,-16 -46,-32 -76,-39 0,95 4,110 -34,114 -65,7 -76,4 -143,2l0 -468 -105 0 0 396c0,30 -4,73 -33,73l-514 0c-22,0 -33,-24 -33,-46l0 -423 -112 0 0 436z"></path> <path class="fil0" d="M6928 3768c9,-82 -42,-99 -73,-74 -18,15 -16,23 -16,43l-5 259 295 -211c37,-26 178,-129 201,-135 33,22 96,79 145,79 17,0 125,-49 -27,-159 -51,-37 -84,-55 -113,-59l-24 0c-30,4 -59,25 -103,57 -33,24 -58,42 -92,66l-188 134z"></path> <path class="fil0" d="M7132 4098l0 225 99 0c0,-99 -26,-291 86,-291 47,0 69,25 79,59 12,40 6,338 6,377l106 0 0 -350c0,-153 -181,-256 -315,-143 -28,24 -61,74 -61,123z"></path> <path class="fil0" d="M7786 4305c55,14 312,239 380,244l0 -141 -149 -104c-21,-17 -209,-152 -231,-158l0 159z"></path> <path class="fil0" d="M7607 3801c0,26 13,51 28,65 15,13 41,30 57,41 21,14 38,25 58,41 21,15 38,24 59,40l232 163 0 -158c-60,-41 -119,-84 -178,-126 -47,-33 -148,-118 -204,-118 -31,0 -52,26 -52,52z"></path> <path class="fil0" d="M6638 3980c-39,17 -43,23 -86,46l0 158c41,-9 142,-99 204,-132l0 -301c-1,-68 -114,-65 -118,4l0 225z"></path> <path class="fil0" d="M6526 4633c0,44 18,61 49,66l122 0c77,0 109,0 186,0 -3,-39 -47,-112 -72,-112l-239 0c-31,0 -46,15 -46,46z"></path> </g> <path class="fil0" d="M5801 1296c624,490 1082,1024 1282,1683 33,170 -220,204 -276,30 -201,-561 -610,-1054 -1156,-1475 -60,-37 -81,-113 -53,-176l5 -11c39,-70 130,-94 198,-51zm981 4053c-238,415 -563,736 -936,966 -143,48 -226,-85 -112,-194 313,-208 591,-495 806,-868 70,-138 294,-93 242,96zm-4036 1037c-464,-250 -862,-624 -1126,-1119 -1,-3 -3,-6 -5,-9 -28,-95 96,-164 180,-60 2,3 4,6 6,10 253,422 620,755 1045,984 89,90 -4,220 -100,194zm-1394 -3188c2,-7 3,-13 5,-20 178,-755 650,-1386 1268,-1786 8,-6 17,-11 25,-17 61,-28 116,49 63,98 -5,3 -11,7 -16,10 -577,377 -1015,966 -1182,1698 -1,5 -2,10 -3,15 -25,85 -162,70 -160,2z"></path> <path class="fil1" d="M3379 425c441,455 308,590 563,80 249,425 307,447 557,27 254,509 140,348 581,-107 -103,413 -212,662 -315,1075 -362,77 -723,73 -1084,0l-302 -1075zm568 -318c65,0 117,53 117,117 0,65 -52,117 -117,117 -64,0 -116,-52 -116,-117 0,-64 52,-117 116,-117zm580 -6c68,0 123,55 123,123 0,68 -55,124 -123,124 -68,0 -124,-56 -124,-124 0,-68 56,-123 124,-123zm624 -76c87,0 158,71 158,158 0,87 -71,158 -158,158 -87,0 -158,-71 -158,-158 0,-87 71,-158 158,-158zm-1848 10c82,0 148,66 148,148 0,81 -66,147 -148,147 -81,0 -147,-66 -147,-147 0,-82 66,-148 147,-148z"></path> <g id="_2598524501616"> <path class="fil2" d="M3043 2560c0,44 -6,83 -19,116 -13,34 -32,63 -57,86 -24,23 -55,40 -91,53 -36,12 -78,18 -127,18l-61 0 0 248c0,4 -2,8 -4,11 -3,3 -7,6 -12,8 -6,2 -14,4 -23,5 -9,1 -22,2 -36,2 -15,0 -27,-1 -36,-2 -10,-1 -18,-3 -23,-5 -6,-2 -10,-5 -12,-8 -3,-3 -4,-7 -4,-11l0 -701c0,-19 5,-33 14,-43 10,-9 22,-14 37,-14l174 0c17,0 34,1 50,2 16,2 34,5 57,9 22,5 44,13 66,26 23,12 42,28 58,47 16,19 29,42 37,67 8,26 12,54 12,86zm-156 12c0,-28 -5,-50 -14,-68 -9,-18 -20,-31 -34,-39 -13,-9 -27,-14 -42,-16 -14,-3 -30,-4 -45,-4l-64 0 0 266 67 0c24,0 44,-4 61,-11 16,-6 29,-16 40,-28 10,-13 18,-27 23,-45 5,-17 8,-35 8,-55zm591 23c0,14 -1,26 -2,35 0,10 -2,17 -3,22 -2,5 -4,9 -6,11 -3,2 -6,3 -9,3 -3,0 -7,-1 -11,-2 -4,-2 -8,-3 -13,-5 -4,-2 -10,-3 -15,-4 -6,-2 -12,-2 -19,-2 -8,0 -16,1 -24,5 -8,3 -16,8 -25,16 -8,7 -17,17 -27,29 -9,12 -19,26 -30,44l0 336c0,4 -1,7 -3,10 -2,3 -6,6 -12,8 -5,2 -13,3 -22,4 -9,1 -20,2 -34,2 -14,0 -26,-1 -35,-2 -9,-1 -17,-2 -22,-4 -6,-2 -9,-5 -12,-8 -2,-3 -3,-6 -3,-10l0 -538c0,-4 1,-8 3,-11 2,-3 5,-5 10,-7 5,-2 11,-4 19,-5 8,-1 18,-1 29,-1 13,0 22,0 30,1 8,1 15,3 19,5 4,2 8,4 9,7 2,3 3,7 3,11l0 67c14,-21 26,-37 38,-50 12,-13 23,-23 34,-31 10,-8 21,-13 32,-16 10,-3 21,-4 32,-4 4,0 10,0 15,0 6,1 12,2 18,4 6,1 12,3 16,4 5,2 8,4 10,6 2,2 4,4 5,7 1,2 1,5 2,10 1,4 2,10 2,19 0,8 1,19 1,34zm231 488c0,4 -1,7 -3,10 -3,3 -6,6 -12,8 -6,2 -13,3 -22,4 -9,1 -21,2 -35,2 -14,0 -25,-1 -34,-2 -9,-1 -17,-2 -22,-4 -6,-2 -10,-5 -12,-8 -2,-3 -3,-6 -3,-10l0 -537c0,-4 1,-8 3,-11 2,-3 6,-5 12,-7 5,-3 13,-4 22,-6 9,-1 20,-1 34,-1 14,0 26,0 35,1 9,2 16,3 22,6 6,2 9,4 12,7 2,3 3,7 3,11l0 537zm12 -721c0,31 -6,52 -18,63 -12,12 -34,18 -66,18 -32,0 -54,-6 -65,-17 -11,-11 -17,-32 -17,-61 0,-31 6,-52 18,-64 11,-11 33,-17 65,-17 32,0 54,5 66,17 11,11 17,32 17,61zm598 182c0,2 0,5 0,7 0,3 0,6 -1,10 -1,3 -1,7 -2,11 -1,5 -2,10 -4,15l-153 487c-1,7 -4,13 -7,17 -4,4 -9,7 -16,10 -8,2 -18,4 -30,4 -13,1 -30,2 -50,2 -20,0 -37,-1 -49,-2 -13,-1 -23,-3 -30,-5 -7,-2 -13,-6 -16,-10 -3,-4 -6,-9 -8,-16l-152 -487c-2,-8 -4,-15 -5,-21 -2,-7 -2,-11 -3,-14 0,-3 0,-6 0,-8 0,-4 1,-7 3,-10 3,-4 6,-6 11,-8 6,-2 13,-3 22,-4 10,-1 21,-1 35,-1 16,0 28,0 38,1 9,1 17,2 22,4 6,2 9,5 12,8 2,4 4,8 5,12l116 396 3 15 4 -15 113 -396c1,-4 3,-8 6,-12 2,-3 6,-6 11,-8 6,-2 13,-3 22,-4 9,-1 20,-1 35,-1 14,0 25,0 34,1 9,1 16,2 21,4 5,2 8,4 10,8 2,3 3,6 3,10zm501 540c0,6 -2,10 -6,14 -4,3 -10,5 -18,7 -8,1 -20,2 -36,2 -17,0 -30,-1 -38,-2 -7,-2 -13,-4 -16,-7 -3,-4 -5,-8 -5,-14l0 -42c-21,23 -45,42 -72,55 -26,13 -56,20 -89,20 -26,0 -51,-4 -74,-12 -22,-7 -42,-18 -58,-33 -17,-14 -30,-33 -39,-54 -9,-22 -13,-47 -13,-76 0,-32 5,-59 17,-82 11,-23 29,-42 52,-57 23,-15 51,-26 85,-33 34,-8 74,-11 119,-11l50 0 0 -33c0,-17 -2,-31 -5,-44 -3,-13 -9,-23 -16,-32 -8,-8 -17,-14 -30,-19 -12,-4 -27,-6 -45,-6 -24,0 -46,3 -64,9 -19,5 -36,12 -50,19 -14,6 -27,13 -36,18 -10,6 -18,9 -24,9 -4,0 -8,-2 -11,-4 -3,-3 -6,-7 -8,-13 -2,-5 -4,-11 -5,-19 -1,-7 -1,-16 -1,-25 0,-12 0,-22 2,-30 2,-7 6,-13 11,-19 6,-6 15,-12 28,-19 13,-7 29,-14 47,-20 18,-6 37,-11 58,-15 21,-3 43,-5 65,-5 40,0 74,4 103,12 28,8 51,21 69,38 19,17 32,39 40,66 9,27 13,59 13,96l0 361zm-141 -230l-55 0c-23,0 -43,2 -59,5 -16,4 -30,9 -40,16 -10,8 -18,16 -22,27 -5,10 -7,22 -7,35 0,22 6,40 20,53 13,13 32,19 56,19 20,0 38,-5 55,-16 17,-11 34,-27 52,-48l0 -91zm574 176c0,17 -1,31 -3,40 -2,10 -5,17 -8,20 -4,4 -9,8 -15,11 -7,3 -15,5 -24,7 -9,3 -18,4 -29,5 -10,2 -21,2 -32,2 -28,0 -53,-4 -74,-11 -20,-8 -38,-20 -52,-35 -13,-16 -23,-36 -30,-60 -6,-25 -9,-53 -9,-86l0 -275 -62 0c-7,0 -13,-5 -17,-15 -4,-9 -5,-25 -5,-47 0,-12 0,-22 1,-30 1,-8 2,-14 4,-19 2,-4 5,-8 8,-10 2,-2 6,-3 9,-3l62 0 0 -120c0,-4 1,-8 3,-11 2,-3 6,-6 11,-8 6,-2 13,-4 22,-5 10,-1 21,-1 35,-1 14,0 26,0 35,1 9,1 17,3 22,5 6,2 9,5 12,8 2,3 3,7 3,11l0 120 110 0c4,0 7,1 10,3 3,2 5,6 7,10 2,5 4,11 5,19 1,8 1,18 1,30 0,22 -2,38 -6,47 -4,10 -9,15 -16,15l-111 0 0 252c0,30 4,52 13,66 9,15 24,22 47,22 7,0 14,0 20,-2 6,-1 12,-3 16,-5 5,-1 9,-3 12,-5 3,-1 7,-2 9,-2 2,0 5,1 7,2 2,2 3,5 5,9 1,4 2,10 3,17 1,7 1,16 1,28zm558 -232c0,19 -4,32 -11,41 -8,9 -19,13 -33,13l-309 0c0,23 2,44 8,63 5,18 13,34 24,47 11,13 25,23 43,30 18,6 39,10 64,10 25,0 47,-2 66,-6 19,-4 35,-8 49,-13 14,-4 25,-9 34,-12 9,-4 17,-6 22,-6 4,0 7,0 9,2 2,1 4,4 6,7 1,4 2,9 3,16 0,6 1,15 1,25 0,8 -1,16 -1,22 0,6 -1,12 -2,16 0,5 -1,8 -3,11 -1,3 -3,6 -6,9 -2,3 -9,7 -20,11 -11,5 -25,10 -42,15 -17,5 -37,9 -59,12 -22,4 -45,6 -70,6 -46,0 -85,-6 -119,-19 -34,-11 -62,-30 -85,-54 -23,-25 -40,-56 -51,-93 -11,-37 -17,-81 -17,-131 0,-48 6,-91 18,-130 11,-38 28,-70 51,-97 22,-27 50,-47 82,-61 32,-14 68,-21 108,-21 43,0 79,6 109,20 31,13 55,31 75,55 19,23 33,51 43,83 9,32 13,67 13,105l0 24zm-139 -43c2,-43 -7,-76 -24,-100 -17,-25 -44,-37 -80,-37 -18,0 -34,4 -48,11 -13,7 -25,17 -33,29 -9,12 -16,27 -21,44 -5,16 -7,34 -8,53l214 0z"></path> <path class="fil2" d="M3336 3455c0,12 0,22 -1,31 -1,8 -2,14 -4,19 -2,5 -4,9 -7,11 -3,3 -6,4 -10,4l-184 0 0 629c0,4 -1,7 -4,11 -2,3 -6,5 -12,7 -6,2 -13,4 -23,5 -10,1 -22,2 -36,2 -15,0 -27,-1 -36,-2 -10,-1 -18,-3 -24,-5 -5,-2 -9,-4 -12,-7 -2,-4 -3,-7 -3,-11l0 -629 -185 0c-3,0 -7,-1 -9,-4 -3,-2 -5,-6 -7,-11 -2,-5 -4,-11 -5,-19 -1,-9 -1,-19 -1,-31 0,-11 0,-22 1,-30 1,-9 3,-15 5,-20 2,-5 4,-9 7,-11 2,-2 6,-3 9,-3l519 0c4,0 7,1 10,3 3,2 5,6 7,11 2,5 3,11 4,20 1,8 1,19 1,30zm347 207c0,15 -1,27 -1,36 -1,9 -2,16 -4,21 -1,6 -3,9 -6,11 -2,2 -5,3 -9,3 -3,0 -7,0 -11,-2 -3,-1 -8,-3 -12,-4 -5,-2 -10,-4 -16,-5 -6,-1 -12,-2 -19,-2 -8,0 -16,2 -24,5 -8,4 -16,9 -25,16 -8,7 -17,17 -26,29 -10,12 -20,27 -30,45l0 335c0,4 -2,7 -4,10 -2,4 -6,6 -12,8 -5,2 -12,4 -21,5 -9,1 -21,1 -35,1 -14,0 -26,0 -35,-1 -9,-1 -16,-3 -22,-5 -5,-2 -9,-4 -11,-8 -3,-3 -4,-6 -4,-10l0 -538c0,-4 1,-7 3,-10 2,-4 5,-6 10,-8 5,-2 11,-4 19,-5 8,-1 18,-1 30,-1 12,0 22,0 30,1 8,1 14,3 18,5 5,2 8,4 10,8 2,3 3,6 3,10l0 67c13,-20 25,-37 37,-50 12,-12 23,-23 34,-31 11,-7 21,-12 32,-15 10,-3 21,-5 32,-5 5,0 10,0 16,1 5,1 11,2 17,3 6,1 12,3 16,5 5,2 8,3 10,5 2,3 4,5 5,7 1,3 2,6 2,10 1,4 2,11 2,19 1,8 1,20 1,34zm495 490c0,5 -2,10 -6,13 -4,3 -10,6 -18,7 -8,1 -20,2 -36,2 -17,0 -30,-1 -37,-2 -8,-1 -14,-4 -17,-7 -3,-3 -5,-8 -5,-13l0 -43c-21,24 -45,42 -71,55 -27,13 -57,20 -89,20 -27,0 -52,-4 -75,-11 -22,-8 -42,-19 -58,-33 -17,-15 -30,-33 -39,-55 -9,-22 -13,-47 -13,-76 0,-31 5,-58 17,-81 12,-24 29,-42 52,-58 23,-15 51,-26 85,-33 34,-7 74,-11 119,-11l50 0 0 -32c0,-17 -2,-32 -5,-45 -3,-12 -9,-23 -16,-31 -7,-9 -17,-15 -30,-19 -12,-4 -27,-6 -45,-6 -24,0 -46,3 -64,8 -19,6 -36,12 -50,19 -14,7 -26,13 -36,19 -10,5 -18,8 -24,8 -4,0 -8,-1 -11,-4 -3,-3 -6,-7 -8,-12 -2,-5 -3,-12 -5,-19 -1,-8 -1,-17 -1,-26 0,-12 1,-22 3,-29 1,-7 5,-14 10,-20 6,-5 15,-12 28,-19 14,-7 29,-13 47,-19 18,-7 37,-11 58,-15 21,-4 43,-6 66,-6 39,0 73,4 102,12 28,9 51,21 69,38 19,18 32,40 40,66 9,27 13,59 13,96l0 362zm-141 -231l-55 0c-23,0 -43,2 -59,5 -16,4 -30,10 -40,17 -10,7 -17,16 -22,26 -5,10 -7,22 -7,35 0,23 6,41 20,53 13,13 32,20 56,20 20,0 38,-6 55,-17 17,-11 34,-26 52,-47l0 -92zm735 -310c0,2 0,5 0,8 -1,2 -1,6 -2,9 0,4 -1,7 -2,12 -1,4 -2,9 -4,15l-152 487c-2,6 -5,12 -8,16 -3,4 -8,8 -16,10 -7,2 -17,4 -30,5 -13,1 -29,1 -50,1 -20,0 -36,0 -49,-1 -13,-1 -23,-3 -30,-6 -7,-2 -12,-5 -15,-10 -4,-4 -6,-9 -8,-15l-152 -487c-3,-8 -5,-15 -6,-22 -1,-6 -2,-11 -2,-14 0,-2 0,-5 0,-8 0,-4 1,-7 3,-10 2,-3 6,-6 11,-8 5,-2 12,-3 22,-4 9,-1 21,-1 35,-1 15,0 28,0 37,1 9,1 17,3 22,5 6,2 10,4 12,8 2,3 4,7 6,12l115 395 4 15 3 -15 113 -395c2,-5 3,-9 6,-12 2,-4 6,-6 12,-8 5,-2 12,-4 21,-5 9,-1 21,-1 35,-1 14,0 26,0 35,1 9,1 16,2 20,4 6,2 9,5 11,8 2,3 3,6 3,10zm542 255c0,18 -3,32 -11,40 -8,9 -19,14 -32,14l-310 0c0,23 3,43 8,62 5,19 13,34 24,47 11,13 26,23 44,30 17,7 38,10 63,10 25,0 47,-2 66,-6 19,-3 35,-8 49,-12 14,-5 25,-9 35,-13 9,-4 16,-6 22,-6 3,0 6,1 8,2 3,2 5,4 6,8 2,3 3,8 3,15 1,7 1,15 1,25 0,9 0,16 -1,23 0,6 0,11 -1,15 -1,5 -2,9 -4,11 -1,4 -3,6 -6,9 -2,3 -9,7 -20,12 -11,5 -25,10 -42,14 -17,5 -37,9 -59,13 -22,3 -45,5 -70,5 -45,0 -85,-6 -119,-18 -34,-12 -62,-30 -85,-55 -23,-24 -40,-55 -51,-93 -11,-37 -17,-81 -17,-131 0,-48 6,-91 18,-129 12,-38 29,-71 51,-98 23,-26 50,-47 82,-61 32,-14 68,-21 109,-21 42,0 79,7 109,20 30,13 55,32 74,55 19,24 34,52 43,84 9,32 13,67 13,105l0 24zm-138 -44c1,-42 -7,-76 -25,-100 -17,-24 -44,-37 -80,-37 -18,0 -34,4 -47,11 -14,8 -25,17 -34,30 -9,12 -16,26 -21,43 -4,17 -7,34 -8,53l215 0zm400 328c0,4 -1,7 -3,10 -2,4 -6,6 -12,8 -5,2 -13,4 -22,5 -9,1 -20,1 -34,1 -14,0 -26,0 -35,-1 -9,-1 -16,-3 -22,-5 -6,-2 -9,-4 -12,-8 -2,-3 -3,-6 -3,-10l0 -793c0,-4 1,-7 3,-11 3,-3 6,-6 12,-8 6,-2 13,-4 22,-5 9,-1 21,-2 35,-2 14,0 25,1 34,2 9,1 17,3 22,5 6,2 10,5 12,8 2,4 3,7 3,11l0 793z"></path> <g> <path class="fil2" d="M3686 5180c0,10 -1,18 -1,25 -1,7 -2,13 -3,18 -1,6 -2,10 -4,14 -2,3 -5,7 -10,12 -4,4 -12,10 -24,17 -12,7 -26,14 -44,21 -17,6 -37,12 -59,16 -22,5 -46,7 -72,7 -50,0 -96,-8 -136,-25 -41,-16 -76,-41 -104,-74 -29,-32 -50,-73 -65,-122 -16,-49 -23,-106 -23,-171 0,-66 8,-125 25,-177 17,-51 40,-94 70,-129 30,-35 66,-61 108,-80 42,-18 88,-27 138,-27 21,0 40,2 59,6 20,3 37,8 53,14 16,6 31,13 44,20 13,8 22,15 27,20 5,5 8,10 10,13 2,4 4,9 5,14 1,6 2,13 2,20 1,8 1,17 1,28 0,12 0,23 -1,31 -1,8 -2,15 -4,20 -2,6 -4,9 -7,12 -2,2 -6,3 -9,3 -5,0 -13,-3 -21,-10 -9,-7 -20,-15 -34,-24 -14,-8 -31,-16 -50,-23 -19,-7 -42,-10 -68,-10 -29,0 -55,6 -78,18 -23,13 -43,31 -59,55 -16,23 -28,52 -37,85 -8,33 -12,71 -12,112 0,46 4,86 13,119 9,34 22,61 38,83 17,22 37,38 60,48 23,11 50,16 79,16 26,0 49,-3 69,-10 19,-6 35,-14 49,-21 14,-8 26,-16 34,-22 9,-6 16,-10 21,-10 4,0 7,1 9,3 3,1 5,5 6,9 1,5 3,12 3,21 1,9 2,20 2,35z"></path> <path class="fil2" d="M3929 5277c0,4 -2,8 -4,11 -2,3 -6,5 -12,7 -5,2 -12,4 -21,5 -10,1 -21,1 -35,1 -14,0 -26,0 -35,-1 -9,-1 -16,-3 -22,-5 -5,-2 -9,-4 -11,-7 -3,-3 -4,-7 -4,-11l0 -793c0,-4 1,-7 4,-11 2,-3 6,-6 11,-8 6,-2 13,-4 22,-5 9,-1 21,-2 35,-2 14,0 25,1 35,2 9,1 16,3 21,5 6,2 10,5 12,8 2,4 4,7 4,11l0 793zm624 0c0,4 -1,8 -2,11 -2,3 -6,5 -10,7 -5,2 -11,4 -19,5 -8,1 -18,1 -29,1 -13,0 -23,0 -31,-1 -8,-1 -14,-3 -18,-5 -5,-2 -8,-4 -10,-7 -2,-3 -3,-7 -3,-11l0 -62c-28,32 -57,56 -86,72 -29,16 -59,24 -90,24 -35,0 -65,-6 -88,-18 -24,-12 -43,-29 -58,-49 -15,-21 -25,-45 -32,-73 -6,-28 -9,-62 -9,-103l0 -329c0,-4 1,-7 3,-10 2,-3 6,-6 12,-8 5,-2 13,-3 22,-5 9,-1 21,-1 35,-1 14,0 25,0 35,1 9,2 16,3 22,5 5,2 9,5 11,8 2,3 4,6 4,10l0 304c0,28 1,49 5,64 3,15 8,28 15,38 7,11 16,19 27,25 11,6 24,9 38,9 19,0 37,-7 55,-21 18,-14 38,-35 59,-61l0 -358c0,-4 1,-7 3,-10 2,-3 6,-6 12,-8 5,-2 13,-3 21,-5 10,-1 21,-1 35,-1 14,0 26,0 35,1 9,2 16,3 22,5 5,2 9,5 11,8 2,3 3,6 3,10l0 538zm656 -276c0,48 -5,91 -15,129 -10,38 -24,70 -43,97 -18,27 -41,48 -68,62 -28,15 -58,22 -93,22 -17,0 -33,-2 -47,-5 -15,-3 -29,-9 -43,-17 -13,-7 -27,-17 -40,-29 -13,-11 -26,-25 -40,-42l0 59c0,4 -1,8 -3,11 -2,3 -6,6 -10,8 -5,2 -11,3 -19,4 -8,1 -18,1 -29,1 -12,0 -22,0 -30,-1 -8,-1 -14,-2 -18,-4 -5,-2 -9,-5 -10,-8 -2,-3 -3,-7 -3,-11l0 -793c0,-4 1,-7 3,-11 2,-3 6,-6 12,-8 5,-2 13,-4 22,-5 9,-1 20,-2 34,-2 14,0 26,1 35,2 9,1 17,3 22,5 6,2 10,5 12,8 2,4 3,7 3,11l0 298c13,-14 26,-26 39,-35 13,-10 26,-18 39,-24 12,-6 26,-11 39,-14 14,-2 28,-4 44,-4 37,0 69,8 95,24 26,16 48,37 64,64 17,27 29,58 36,94 8,36 12,74 12,114zm-148 10c0,-22 -2,-44 -5,-66 -3,-21 -9,-40 -17,-56 -8,-17 -19,-30 -31,-39 -13,-10 -29,-15 -48,-15 -10,0 -19,1 -28,4 -9,3 -19,8 -28,14 -10,7 -20,16 -30,27 -11,11 -21,24 -33,40l0 178c20,28 40,48 58,62 18,14 38,21 58,21 18,0 34,-4 47,-15 13,-10 24,-23 32,-39 9,-16 15,-34 19,-54 4,-21 6,-41 6,-62z"></path> </g> </g> </g> </svg>